# xmcd
#
# Track frame offsets:
#	150
#	13737
#	25195
#	38437
#	49460
#	61572
#	80097
#	95870
#	110292
#	125785
#	140760
#	154252
#	171675
#	193497
#	205805
#	215480
#	229892
#	242832
#	258375
#	271960
#
# Disc length: 3843 seconds
#
# Revision: 1
# Processed by: cddbd v1.4PL0 Copyright (c) Steve Scherf et al.
# Submitted via: MusicWizard 7.0.1
#
DISCID=330f0114
DTITLE=Waylon Jennings - Only Daddy That'll Walk The Line (The RCA Years) - Disc 2
DYEAR=1900
DGENRE=Country
TTITLE0=Amanda
TTITLE1=Rainy Day Woman
TTITLE2=Are You Sure Hank Done It This Way
TTITLE3=Dreaming My Dreams With You
TTITLE4=Waymore's Blues
TTITLE5=T For Texas
TTITLE6=Bob Wills Is Still The King
TTITLE7=Are You Ready For The Country
TTITLE8=Jack-A-Diamonds
TTITLE9=Luckenbach, Texas (Back To The Basics Of Love)
TTITLE10=Don't You Think This Outlaw Bit's Done Got Out Of Hand
TTITLE11=The Conversation (With Hank Williams, Jr. and  Richie Albright)
TTITLE12=I Ain't Living Long Like This
TTITLE13=Clyde
TTITLE14=Theme From The Dukes Of Hazzard (Good Ol' Boys)
TTITLE15=Storms Never Last
TTITLE16=Shine
TTITLE17=Lucille (You Won't Do Your Daddy's Will)
TTITLE18=Never Could Toe The Mark
TTITLE19=Looking For Suzanne
EXTD=
EXTT0=
EXTT1=
EXTT2=
EXTT3=
EXTT4=
EXTT5=
EXTT6=
EXTT7=
EXTT8=
EXTT9=
EXTT10=
EXTT11=
EXTT12=
EXTT13=
EXTT14=
EXTT15=
EXTT16=
EXTT17=
EXTT18=
EXTT19=
PLAYORDER=
